<svg width="154" height="154" viewBox="0 0 154 154" fill="none" xmlns="http://www.w3.org/2000/svg">
<g filter="url(#filter0_g_2118_767)">
<path d="M12.7001 76.9474C12.7001 79.8846 15.3519 80.68 17.5315 81.2813C19.8098 81.9098 21.9973 82.5132 21.9239 85.7652C21.7784 92.2083 23.1605 99.6764 26.3612 99.9693C29.562 100.262 32.1807 98.1389 33.6356 91.6226C35.0905 85.1062 47.1661 76.8327 56.4044 85.7652C65.6426 94.6977 58.2957 106.193 52.1852 102.825C48.9517 101.042 49.0997 98.5836 49.2336 96.3595C49.3528 94.3807 49.4608 92.5878 47.1661 91.6226C42.2923 89.5725 34.145 93.3798 35.1634 106.193C36.1818 119.006 48.621 121.934 59.7508 118.786C70.8805 115.638 76.7 103.703 76.7 96.2352L76.7 57.6651C76.7 50.197 70.8805 38.2626 59.7507 35.1143C48.621 31.9659 36.1818 34.8946 35.1634 47.7076C34.145 60.5206 42.2923 64.3279 47.1661 62.2778C49.4608 61.3126 49.3528 59.5197 49.2336 57.5409C49.0997 55.3168 48.9517 52.8579 52.1852 51.0756C58.2957 47.7076 65.6426 59.2027 56.4044 68.1352C47.1661 77.0677 35.0905 68.7941 33.6356 62.2778C32.1807 55.7615 29.562 53.6382 26.3612 53.9311C23.1605 54.2239 21.7784 61.6921 21.9239 68.1352C21.9973 71.3872 19.8098 71.9906 17.5315 72.6191C15.3519 73.2203 12.7001 74.0103 12.7001 76.9474ZM12.7001 76.9474C12.6997 76.9474 12.7008 76.9474 12.7001 76.9474Z" stroke="#412E27" stroke-width="2" stroke-linecap="round"/>
<path d="M140.7 76.953C140.7 74.0158 138.048 73.2203 135.869 72.6191C133.59 71.9906 131.403 71.3872 131.476 68.1352C131.622 61.6921 130.24 54.2239 127.039 53.9311C123.838 53.6382 121.219 55.7615 119.764 62.2778C118.31 68.7941 106.234 77.0677 96.9957 68.1352C87.7574 59.2027 95.1043 47.7076 101.215 51.0756C104.448 52.8579 104.3 55.3168 104.166 57.5409C104.047 59.5197 103.939 61.3126 106.234 62.2778C111.108 64.3279 119.255 60.5206 118.237 47.7076C117.218 34.8946 104.779 31.9659 93.6493 35.1143C82.5195 38.2626 76.7 50.197 76.7 57.6651L76.7 96.2352C76.7 103.703 82.5195 115.638 93.6493 118.786C104.779 121.934 117.218 119.006 118.237 106.193C119.255 93.3798 111.108 89.5725 106.234 91.6226C103.939 92.5878 104.047 94.3807 104.166 96.3595C104.3 98.5836 104.448 101.042 101.215 102.825C95.1043 106.193 87.7574 94.6977 96.9957 85.7652C106.234 76.8327 118.31 85.1062 119.764 91.6226C121.219 98.1389 123.838 100.262 127.039 99.9693C130.24 99.6765 131.622 92.2083 131.476 85.7652C131.403 82.5132 133.59 81.9098 135.869 81.2813C138.048 80.68 140.7 79.8901 140.7 76.953ZM140.7 76.953C140.7 76.953 140.699 76.953 140.7 76.953Z" stroke="#412E27" stroke-width="2" stroke-linecap="round"/>
<path d="M4.70001 76.9502H148.7" stroke="#412E27" stroke-width="2" stroke-linecap="round"/>
<path d="M4.70001 148.697L148.697 4.7004" stroke="#412E27" stroke-width="2" stroke-linecap="round"/>
<path d="M76.7 148.95L76.7 4.95019" stroke="#412E27" stroke-width="2" stroke-linecap="round"/>
<path d="M148.698 148.7L4.70118 4.70334" stroke="#412E27" stroke-width="2" stroke-linecap="round"/>
</g>
<defs>
<filter id="filter0_g_2118_767" x="1.21593e-05" y="0.000195265" width="153.4" height="153.65" filterUnits="userSpaceOnUse" color-interpolation-filters="sRGB">
<feFlood flood-opacity="0" result="BackgroundImageFix"/>
<feBlend mode="normal" in="SourceGraphic" in2="BackgroundImageFix" result="shape"/>
<feTurbulence type="fractalNoise" baseFrequency="0.76923078298568726 0.76923078298568726" numOctaves="3" seed="3060" />
<feDisplacementMap in="shape" scale="7.4000000953674316" xChannelSelector="R" yChannelSelector="G" result="displacedImage" width="100%" height="100%" />
<feMerge result="effect1_texture_2118_767">
<feMergeNode in="displacedImage"/>
</feMerge>
</filter>
</defs>
</svg>
