<svg width="102" height="29" viewBox="0 0 102 29" fill="none" xmlns="http://www.w3.org/2000/svg">
<g filter="url(#filter0_g_2118_739)">
<path d="M14.6316 23.2885C15.2019 24.256 14.5086 25.4801 13.3903 25.4801H12.6751C12.1538 25.4801 11.673 25.1973 11.4174 24.7403L6.93023 16.7171C6.50306 15.9533 5.44908 15.8533 4.88744 16.5232C4.69756 16.7497 4.59342 17.0365 4.59342 17.3327V24.0288C4.59342 24.8303 3.94735 25.4801 3.15038 25.4801H2.53596C1.73899 25.4801 1.09292 24.8303 1.09292 24.0288V4.73574C1.09292 3.93417 1.73899 3.28437 2.53596 3.28437H3.15038C3.94735 3.28437 4.59342 3.93417 4.59342 4.73574V7.82638C4.59342 9.20146 6.31769 9.8056 7.16716 8.72816L11.0258 3.83396C11.2996 3.48677 11.716 3.28437 12.1565 3.28437H12.8582C14.0847 3.28437 14.752 4.72583 13.9626 5.66992L8.92226 11.6975C8.52745 12.1696 8.47255 12.8412 8.78539 13.3719L14.6316 23.2885Z" fill="#412E27"/>
<path d="M30.7967 1.43091C31.7964 1.43091 32.4933 2.42862 32.1542 3.37454L26.0528 20.3951C25.5455 21.7558 24.8071 22.7026 23.8376 23.2355C22.868 23.7571 21.7124 24.0179 20.3709 24.0179C19.9086 24.0179 19.4126 23.9668 18.8827 23.8648C18.7423 23.8407 18.6002 23.8127 18.4565 23.7807C17.7425 23.6215 17.3465 22.882 17.5071 22.1644L17.6465 21.5418C17.8073 20.8232 18.5662 20.4441 19.2886 20.5652C19.6944 20.6332 20.0552 20.6672 20.3709 20.6672C21.4193 20.6672 22.1352 20.191 22.5185 19.2385L22.9294 18.2332C23.0675 17.8954 23.0739 17.5177 22.9473 17.1754L17.848 3.3883C17.4973 2.44006 18.1946 1.43091 19.2005 1.43091H19.7486C20.3556 1.43091 20.8978 1.81301 21.105 2.3869L23.6801 9.51938C24.1462 10.8104 25.9691 10.7884 26.4043 9.48649L28.7662 2.4198C28.9637 1.82894 29.5143 1.43091 30.1341 1.43091H30.7967Z" fill="#412E27"/>
<path d="M49.0628 11.6014C49.0628 13.8238 48.392 15.4793 47.0504 16.5678C45.7089 17.645 43.8374 18.1836 41.4361 18.1836H39.0742C38.2773 18.1836 37.6312 18.8334 37.6312 19.635V25.7126C37.6312 26.5142 36.9851 27.164 36.1882 27.164H35.5737C34.7768 27.164 34.1307 26.5142 34.1307 25.7126V6.41956C34.1307 5.61799 34.7768 4.96819 35.5737 4.96819H41.4023C43.8261 4.96819 45.7089 5.52946 47.0504 6.652C48.392 7.76321 49.0628 9.41301 49.0628 11.6014ZM45.5623 11.5504C45.5623 10.4165 45.1903 9.56608 44.4462 8.99914C43.7134 8.4322 42.71 8.14873 41.4361 8.14873H39.0742C38.2773 8.14873 37.6312 8.79853 37.6312 9.6001V13.5517C37.6312 14.3533 38.2773 15.0031 39.0742 15.0031H41.4361C42.71 15.0031 43.7134 14.7196 44.4462 14.1526C45.1903 13.5857 45.5623 12.7183 45.5623 11.5504Z" fill="#412E27"/>
<path d="M57.352 23.2885C56.555 23.2885 55.9089 22.6387 55.9089 21.8372V14.6113C55.9089 14.5241 55.8865 14.4384 55.8438 14.3626C55.6372 13.996 55.1014 14.0306 54.9431 14.4206L51.7095 22.3858C51.4879 22.9317 50.9599 23.2885 50.3736 23.2885H50.1712C49.1253 23.2885 48.4268 22.2042 48.8542 21.244L53.2223 11.4324C53.412 11.0062 53.3862 10.5141 53.153 10.1102L49.2036 3.27325C48.6446 2.30567 49.3387 1.09277 50.4513 1.09277H50.5596C51.1025 1.09277 51.5996 1.39934 51.8458 1.88611L53.1797 4.52364C53.8676 5.88387 55.9089 5.3917 55.9089 3.86561V2.54414C55.9089 1.74257 56.555 1.09277 57.352 1.09277H57.9664C58.7634 1.09277 59.4094 1.74257 59.4094 2.54414V3.88597C59.4094 5.41086 61.4482 5.90408 62.1377 4.54598L63.489 1.88414C63.7356 1.39846 64.232 1.09277 64.7742 1.09277H64.8709C65.9826 1.09277 66.6768 2.30402 66.1196 3.2716L62.1804 10.1117C61.9482 10.5147 61.9226 11.0054 62.1114 11.4307L66.4676 21.2455C66.8937 22.2056 66.1952 23.2885 65.1499 23.2885H64.9617C64.3754 23.2885 63.8474 22.9317 63.6257 22.3858L60.3931 14.423C60.233 14.0285 59.6925 13.9902 59.479 14.3583C59.4334 14.4369 59.4094 14.5262 59.4094 14.6172V21.8372C59.4094 22.6387 58.7634 23.2885 57.9664 23.2885H57.352Z" fill="#412E27"/>
<path d="M82.3665 5.24177C83.3662 5.24177 84.0631 6.23948 83.724 7.18539L77.6227 24.206C77.1153 25.5666 76.3769 26.5134 75.4074 27.0463C74.4378 27.5679 73.2822 27.8287 71.9407 27.8287C71.4784 27.8287 70.9824 27.7777 70.4525 27.6757C70.3121 27.6516 70.17 27.6236 70.0263 27.5916C69.3123 27.4324 68.9163 26.6929 69.0769 25.9753L69.2163 25.3526C69.3771 24.6341 70.136 24.255 70.8584 24.3761C71.2643 24.4441 71.625 24.4781 71.9407 24.4781C72.9891 24.4781 73.705 24.0019 74.0883 23.0494L74.4993 22.0441C74.6373 21.7063 74.6437 21.3285 74.5171 20.9862L69.4178 7.19916C69.0671 6.25092 69.7644 5.24177 70.7703 5.24177H71.3184C71.9254 5.24177 72.4676 5.62387 72.6748 6.19776L75.2499 13.3302C75.716 14.6213 77.5389 14.5992 77.9741 13.2973L80.336 6.23066C80.5335 5.6398 81.0841 5.24177 81.7039 5.24177H82.3665Z" fill="#412E27"/>
<path d="M100.13 22.4134C100.13 23.215 99.484 23.8648 98.687 23.8648H98.0726C97.2756 23.8648 96.6295 23.215 96.6295 22.4134V15.6045C96.6295 14.8029 95.9835 14.1531 95.1865 14.1531H90.9701C90.1731 14.1531 89.527 14.8029 89.527 15.6045V22.4134C89.527 23.215 88.881 23.8648 88.084 23.8648H87.4696C86.6726 23.8648 86.0265 23.215 86.0265 22.4134V3.12039C86.0265 2.31882 86.6726 1.66902 87.4696 1.66902H88.084C88.881 1.66902 89.527 2.31882 89.527 3.12039V9.52117C89.527 10.3227 90.1731 10.9725 90.9701 10.9725H95.1865C95.9835 10.9725 96.6295 10.3227 96.6295 9.52117V3.12039C96.6295 2.31882 97.2756 1.66902 98.0726 1.66902H98.687C99.484 1.66902 100.13 2.31882 100.13 3.12039V22.4134Z" fill="#412E27"/>
</g>
<defs>
<filter id="filter0_g_2118_739" x="8.34465e-07" y="-0.000144124" width="101.223" height="28.9217" filterUnits="userSpaceOnUse" color-interpolation-filters="sRGB">
<feFlood flood-opacity="0" result="BackgroundImageFix"/>
<feBlend mode="normal" in="SourceGraphic" in2="BackgroundImageFix" result="shape"/>
<feTurbulence type="fractalNoise" baseFrequency="0.99900001287460327 0.99900001287460327" numOctaves="3" seed="9406" />
<feDisplacementMap in="shape" scale="2.1858351230621338" xChannelSelector="R" yChannelSelector="G" result="displacedImage" width="100%" height="100%" />
<feMerge result="effect1_texture_2118_739">
<feMergeNode in="displacedImage"/>
</feMerge>
</filter>
</defs>
</svg>
