<svg width="1441" height="40" viewBox="0 0 1441 40" fill="none" xmlns="http://www.w3.org/2000/svg" preserveAspectRatio="none">
<g filter="url(#filter0_g_2118_1396)">
<path d="M1463.46 40L1421.64 0L1379.83 40L1338.01 0L1296.19 40L1254.37 0L1212.55 40L1170.74 0L1128.92 40L1087.1 0L1045.28 40L1003.47 0L961.647 40L919.829 0L878.011 40L836.194 0L794.376 40L752.558 0L710.74 40L668.922 0L627.104 40L585.286 0L543.469 40L501.651 0L459.833 40L418.015 0L376.197 40L334.379 0L292.561 40L250.744 0L208.926 40L167.108 0L125.29 40L83.4721 0L41.6543 40L-0.163589 0L-41.9814 40M18.3291 40L-0.228022 22.963L-18.7851 40M101.836 40L83.2788 22.963L64.7217 40M185.343 40L166.786 22.963L148.229 40M269.623 40L251.066 22.963L232.509 40M353.13 40L334.573 22.963L316.015 40M436.636 40L418.079 22.963L399.522 40M520.143 40L501.586 22.963L483.029 40M603.65 40L585.093 22.963L566.536 40M687.157 40L668.6 22.963L650.043 40M771.437 40L752.88 22.963L734.323 40M854.944 40L836.387 22.963L817.83 40M938.451 40L919.894 22.963L901.337 40M1021.96 40L1003.4 22.963L984.843 40M1105.46 40L1086.91 22.963L1068.35 40M1188.97 40L1170.41 22.963L1151.86 40M1273.25 40L1254.69 22.963L1236.14 40M1356.76 40L1338.2 22.963L1319.64 40M1440.27 40L1421.71 22.963L1403.15 40M60.0825 0L41.5254 17.037L22.9683 0M143.589 0L125.032 17.037L106.475 0M227.096 0L208.539 17.037L189.982 0M311.376 0L292.819 17.037L274.262 0M394.883 0L376.326 17.037L357.769 0M478.39 0L459.833 17.037L441.276 0M561.897 0L543.34 17.037L524.783 0M645.404 0L626.847 17.037L608.289 0M728.91 0L710.353 17.037L691.796 0M813.191 0L794.633 17.037L776.076 0M896.697 0L878.14 17.037L859.583 0M980.204 0L961.647 17.037L943.09 0M1063.71 0L1045.15 17.037L1026.6 0M1147.22 0L1128.66 17.037L1110.1 0M1230.72 0L1212.17 17.037L1193.61 0M1315 0L1296.45 17.037L1277.89 0M1398.51 0L1379.95 17.037L1361.4 0M1482.02 0L1463.46 17.037L1444.9 0" stroke="#412E27" stroke-width="2" stroke-linecap="round" stroke-dasharray="4 4"/>
</g>
<defs>
<filter id="filter0_g_2118_1396" x="-46.6814" y="-5.08379" width="1533.4" height="50.1676" filterUnits="userSpaceOnUse" color-interpolation-filters="sRGB">
<feFlood flood-opacity="0" result="BackgroundImageFix"/>
<feBlend mode="normal" in="SourceGraphic" in2="BackgroundImageFix" result="shape"/>
<feTurbulence type="fractalNoise" baseFrequency="0.76923078298568726 0.76923078298568726" numOctaves="3" seed="3060" />
<feDisplacementMap in="shape" scale="7.4000000953674316" xChannelSelector="R" yChannelSelector="G" result="displacedImage" width="100%" height="100%" />
<feMerge result="effect1_texture_2118_1396">
<feMergeNode in="displacedImage"/>
</feMerge>
</filter>
</defs>
</svg>
