<svg width="172" height="416" viewBox="0 0 172 416" fill="none" xmlns="http://www.w3.org/2000/svg">
<g filter="url(#filter0_g_2118_807)">
<path d="M85.7047 279.288C89.0175 279.288 89.9147 276.305 90.5929 273.853C91.3017 271.29 91.9823 268.829 95.6503 268.911C102.918 269.075 111.341 267.52 111.671 263.919C112.002 260.318 109.607 257.372 102.257 255.736C94.9071 254.099 85.5753 240.514 95.6503 230.121C105.725 219.728 118.691 227.993 114.892 234.867C112.882 238.505 110.108 238.338 107.6 238.188C105.368 238.054 103.346 237.932 102.257 240.514C99.9446 245.997 104.239 255.162 118.691 254.017C133.143 252.871 136.446 238.877 132.895 226.356C129.344 213.835 115.883 207.288 107.46 207.288L63.9561 207.288C55.5327 207.288 42.0718 213.835 38.5208 226.356C34.9697 238.877 38.273 252.871 52.7249 254.017C67.1768 255.162 71.471 245.997 69.1587 240.514C68.0701 237.932 66.0478 238.054 63.816 238.188C61.3074 238.338 58.5339 238.505 56.5237 234.867C52.7249 227.993 65.6903 219.728 75.7653 230.121C85.8403 240.514 76.5085 254.099 69.1587 255.736C61.8089 257.372 59.414 260.318 59.7444 263.919C60.0747 267.52 68.4981 269.075 75.7653 268.911C79.4333 268.829 80.1139 271.29 80.8227 273.853C81.5009 276.305 82.3919 279.288 85.7047 279.288ZM85.7047 279.288C85.7047 279.288 85.7047 279.287 85.7047 279.288Z" stroke="#412E27" stroke-width="2" stroke-linecap="round"/>
<path d="M85.7109 135.288C82.3981 135.288 81.5009 138.271 80.8227 140.724C80.1139 143.287 79.4333 145.748 75.7653 145.665C68.4981 145.501 60.0747 147.056 59.7444 150.657C59.414 154.258 61.8089 157.204 69.1587 158.841C76.5085 160.477 85.8403 174.062 75.7653 184.455C65.6903 194.849 52.7249 186.583 56.5237 179.709C58.5339 176.071 61.3074 176.238 63.816 176.388C66.0478 176.522 68.0701 176.644 69.1587 174.062C71.471 168.579 67.1768 159.414 52.7249 160.559C38.273 161.705 34.9697 175.699 38.5208 188.22C42.0718 200.741 55.5327 207.288 63.9561 207.288L107.46 207.288C115.883 207.288 129.344 200.741 132.895 188.22C136.446 175.699 133.143 161.705 118.691 160.559C104.239 159.414 99.9446 168.579 102.257 174.062C103.346 176.644 105.368 176.522 107.6 176.388C110.108 176.238 112.882 176.071 114.892 179.709C118.691 186.583 105.725 194.849 95.6503 184.455C85.5753 174.062 94.9071 160.477 102.257 158.841C109.607 157.204 112.002 154.258 111.671 150.657C111.341 147.056 102.918 145.501 95.6503 145.665C91.9823 145.748 91.3017 143.287 90.5929 140.724C89.9147 138.271 89.0238 135.288 85.7109 135.288ZM85.7109 135.288V135.288Z" stroke="#412E27" stroke-width="2" stroke-linecap="round"/>
<path d="M4.7 207.788H166.7" stroke="#412E27" stroke-width="2" stroke-linecap="round"/>
<path d="M4.70002 279.7H166.7" stroke="#412E27" stroke-width="2" stroke-linecap="round"/>
<path d="M4.70002 135.7H166.7" stroke="#412E27" stroke-width="2" stroke-linecap="round"/>
<path d="M37.7 278.52L134.7 135.7" stroke="#412E27" stroke-width="2" stroke-linecap="round"/>
<path d="M85.7976 410.7L85.7976 4.7002" stroke="#412E27" stroke-width="2" stroke-linecap="round"/>
<path d="M85.7977 410.7L85.7977 4.7002" stroke="#412E27" stroke-width="2" stroke-linecap="round"/>
<path d="M134.7 410.7L134.7 4.7002" stroke="#412E27" stroke-width="2" stroke-linecap="round"/>
<path d="M37.7 410.7L37.7 4.7002" stroke="#412E27" stroke-width="2" stroke-linecap="round"/>
<path d="M134.7 278.523L37.7 135.703" stroke="#412E27" stroke-width="2" stroke-linecap="round"/>
</g>
<defs>
<filter id="filter0_g_2118_807" x="-3.09944e-06" y="0.000195265" width="171.4" height="415.4" filterUnits="userSpaceOnUse" color-interpolation-filters="sRGB">
<feFlood flood-opacity="0" result="BackgroundImageFix"/>
<feBlend mode="normal" in="SourceGraphic" in2="BackgroundImageFix" result="shape"/>
<feTurbulence type="fractalNoise" baseFrequency="0.76923078298568726 0.76923078298568726" numOctaves="3" seed="3060" />
<feDisplacementMap in="shape" scale="7.4000000953674316" xChannelSelector="R" yChannelSelector="G" result="displacedImage" width="100%" height="100%" />
<feMerge result="effect1_texture_2118_807">
<feMergeNode in="displacedImage"/>
</feMerge>
</filter>
</defs>
</svg>
